<?xml version="1.0" encoding="UTF-8" standalone="no"?>
<svg width="52px" height="48px" viewBox="0 0 52 48" version="1.1" xmlns="http://www.w3.org/2000/svg" xmlns:xlink="http://www.w3.org/1999/xlink">
    <!-- Generator: Sketch 3.8.3 (29802) - http://www.bohemiancoding.com/sketch -->
    <title>Icon</title>
    <desc>Created with Sketch.</desc>
    <defs></defs>
    <g id="Page-1" stroke="none" stroke-width="1" fill="none" fill-rule="evenodd">
        <g id="Front-end-Developer-Test" transform="translate(-557.000000, -807.000000)">
            <g id="Features-#5" transform="translate(0.000000, 79.000000)">
                <g id="Icon" transform="translate(540.000000, 710.000000)">
                    <polygon id="Security-Space" fill="#FEFEFE" opacity="0" points="0 86 86 86 86 0 0 0"></polygon>
                    <g transform="translate(17.000000, 18.000000)">
                        <path d="M13.0708866,14.7171717 L9.16369876,14.7171717 C8.69773117,14.7171717 8.32,14.3323232 8.32,13.8585859 C8.32,13.3848485 8.69773117,13 9.16369876,13 L13.0708866,13 C13.5358627,13 13.9135939,13.3848485 13.9135939,13.8585859 C13.9135939,14.3323232 13.5358627,14.7171717 13.0708866,14.7171717 L13.0708866,14.7171717 Z M20.8862536,14.7171717 L16.9780744,14.7171717 C16.5130982,14.7171717 16.135367,14.3323232 16.135367,13.8585859 C16.135367,13.3848485 16.5130982,13 16.9780744,13 L20.8862536,13 C21.3512297,13 21.7289609,13.3848485 21.7289609,13.8585859 C21.7289609,14.3323232 21.3512297,14.7171717 20.8862536,14.7171717 L20.8862536,14.7171717 Z M28.7016206,14.7171717 L24.7934414,14.7171717 C24.3284652,14.7171717 23.950734,14.3323232 23.950734,13.8585859 C23.950734,13.3848485 24.3284652,13 24.7934414,13 L28.7016206,13 C29.1665968,13 29.5443279,13.3848485 29.5443279,13.8585859 C29.5443279,14.3323232 29.1665968,14.7171717 28.7016206,14.7171717 L28.7016206,14.7171717 Z M44.3313632,14.7171717 L40.4241754,14.7171717 C39.9591992,14.7171717 39.5814681,14.3323232 39.5814681,13.8585859 C39.5814681,13.3848485 39.9591992,13 40.4241754,13 L44.3313632,13 C44.7963394,13 45.1740705,13.3848485 45.1740705,13.8585859 C45.1740705,14.3323232 44.7963394,14.7171717 44.3313632,14.7171717 L44.3313632,14.7171717 Z M1.84305052,16.3787879 C1.65567207,16.3787879 1.46631077,16.3151515 1.31065777,16.1838384 C0.949780744,15.8838384 0.897235462,15.3434343 1.19168732,14.9757576 C2.19203051,13.7292929 3.67222116,13.0090909 5.25056244,13 C5.73834128,13.0050505 6.09624404,13.379798 6.09822688,13.8535354 C6.10120114,14.3282828 5.72545281,14.7141414 5.26047664,14.7171717 C4.18577693,14.7232323 3.17750238,15.2141414 2.49540515,16.0636364 C2.32983794,16.2707071 2.08693994,16.3787879 1.84305052,16.3787879 L1.84305052,16.3787879 Z M50.891592,17.6949495 C50.5465777,17.6949495 50.2243661,17.4777778 50.0994471,17.1292929 C49.7326215,16.0989899 48.9404766,15.2959596 47.9262536,14.9282828 C47.4880458,14.7686869 47.2590276,14.2777778 47.4156721,13.8313131 C47.5713251,13.3848485 48.0551382,13.1515152 48.4923546,13.310101 C49.9804766,13.8515152 51.1444042,15.0292929 51.6837369,16.5434343 C51.8423642,16.9888889 51.6163203,17.4808081 51.1791039,17.6424242 C51.0839276,17.6787879 50.9867684,17.6949495 50.891592,17.6949495 L50.891592,17.6949495 Z M0.84270734,24.1030303 C0.377731173,24.1030303 0,23.7181818 0,23.2444444 L0,19.2626263 C0,18.7888889 0.377731173,18.4040404 0.84270734,18.4040404 C1.30768351,18.4040404 1.68541468,18.7888889 1.68541468,19.2626263 L1.68541468,23.2444444 C1.68541468,23.7181818 1.30768351,24.1030303 0.84270734,24.1030303 L0.84270734,24.1030303 Z M51.1572927,25.6262626 C50.6923165,25.6262626 50.3145853,25.2414141 50.3145853,24.7676768 L50.3145853,20.7858586 C50.3145853,20.3121212 50.6923165,19.9272727 51.1572927,19.9272727 C51.6222688,19.9272727 52,20.3121212 52,20.7858586 L52,24.7676768 C52,25.2414141 51.6222688,25.6262626 51.1572927,25.6262626 L51.1572927,25.6262626 Z M0.84270734,32.0656566 C0.377731173,32.0656566 0,31.6808081 0,31.2070707 L0,27.2252525 C0,26.7515152 0.377731173,26.3666667 0.84270734,26.3666667 C1.30768351,26.3666667 1.68541468,26.7515152 1.68541468,27.2252525 L1.68541468,31.2070707 C1.68541468,31.6808081 1.30768351,32.0656566 0.84270734,32.0656566 L0.84270734,32.0656566 Z M51.1572927,33.5888889 C50.6923165,33.5888889 50.3145853,33.2040404 50.3145853,32.730303 L50.3145853,28.7484848 C50.3145853,28.2747475 50.6923165,27.889899 51.1572927,27.889899 C51.6222688,27.889899 52,28.2747475 52,28.7484848 L52,32.730303 C52,33.2040404 51.6222688,33.5888889 51.1572927,33.5888889 L51.1572927,33.5888889 Z M1.09948522,39.9969697 C0.752488084,39.9969697 0.428293613,39.7787879 0.305357483,39.4262626 C0.102116301,38.8474747 0,38.2393939 0,37.6191919 L0,35.1878788 C0,34.7141414 0.377731173,34.3292929 0.84270734,34.3292929 C1.30768351,34.3292929 1.68541468,34.7141414 1.68541468,35.1878788 L1.68541468,37.6191919 C1.68541468,38.0424242 1.75481411,38.4565657 1.89361296,38.8505051 C2.04926597,39.2969697 1.82024786,39.7878788 1.38204004,39.9474747 C1.28884652,39.9818182 1.19367016,39.9969697 1.09948522,39.9969697 L1.09948522,39.9969697 Z M50.1718208,41.3181818 C49.9854337,41.3181818 49.7980553,41.2555556 49.6424023,41.1272727 C49.2805338,40.8292929 49.2240229,40.2878788 49.5174833,39.920202 C50.0389704,39.2626263 50.3145853,38.4676768 50.3145853,37.6191919 L50.3145853,36.7111111 C50.3145853,36.2373737 50.6923165,35.8525253 51.1572927,35.8525253 C51.6222688,35.8525253 52,36.2373737 52,36.7111111 L52,37.6191919 C52,38.8474747 51.5836034,40.0484848 50.8271497,41 C50.660591,41.210101 50.4167016,41.3181818 50.1718208,41.3181818 L50.1718208,41.3181818 Z M7.64285987,43 L5.28129647,43 C4.66165872,43 4.05490944,42.8919192 3.47889418,42.6777778 C3.04068637,42.5161616 2.81563394,42.0232323 2.9742612,41.5777778 C3.13288847,41.1313131 3.61670162,40.9030303 4.05391802,41.0636364 C4.44552908,41.2090909 4.85895138,41.2828283 5.28129647,41.2828283 L7.64285987,41.2828283 C8.10882745,41.2828283 8.48556721,41.6676768 8.48556721,42.1414141 C8.48556721,42.6151515 8.10882745,43 7.64285987,43 L7.64285987,43 Z M15.4582269,43 L11.5510391,43 C11.0860629,43 10.7083317,42.6151515 10.7083317,42.1414141 C10.7083317,41.6676768 11.0860629,41.2828283 11.5510391,41.2828283 L15.4582269,41.2828283 C15.9232031,41.2828283 16.3009342,41.6676768 16.3009342,42.1414141 C16.3009342,42.6151515 15.9232031,43 15.4582269,43 L15.4582269,43 Z M23.2735939,43 L19.3664061,43 C18.9004385,43 18.5236988,42.6151515 18.5236988,42.1414141 C18.5236988,41.6676768 18.9004385,41.2828283 19.3664061,41.2828283 L23.2735939,41.2828283 C23.7385701,41.2828283 24.1163012,41.6676768 24.1163012,42.1414141 C24.1163012,42.6151515 23.7385701,43 23.2735939,43 L23.2735939,43 Z M31.0889609,43 L27.1807817,43 C26.7158055,43 26.3380744,42.6151515 26.3380744,42.1414141 C26.3380744,41.6676768 26.7158055,41.2828283 27.1807817,41.2828283 L31.0889609,41.2828283 C31.5539371,41.2828283 31.9316683,41.6676768 31.9316683,42.1414141 C31.9316683,42.6151515 31.5539371,43 31.0889609,43 L31.0889609,43 Z M42.8115157,43 C42.3465396,43 41.9688084,42.6151515 41.9688084,42.1414141 C41.9688084,41.6676768 42.3465396,41.2828283 42.8115157,41.2828283 L46.7187035,41.2828283 C47.1846711,41.2828283 47.5871878,41.6666667 47.5871878,42.1414141 C47.5871878,42.6151515 47.2352336,43 46.7702574,43 L46.7702574,42.140404 L46.743489,43 L42.8115157,43 Z" id="Fill-73" fill-opacity="0.3" fill="#43484D"></path>
                        <polygon id="Fill-75" fill="#E0E7ED" points="22.92 42.043 12.17 42.043 12.17 13.631 22.92 13.631"></polygon>
                        <path d="M29.8965,7.0425 L33.1695,7.0425" id="Fill-77" fill="#FEFEFE"></path>
                        <path d="M29.8965,21.0425 L33.1695,21.0425" id="Fill-78" fill="#FEFEFE"></path>
                        <path d="M29.8965,14.0425 L36.1695,14.0425" id="Fill-79" fill="#FEFEFE"></path>
                        <path d="M29.8965,28.0425 L36.1695,28.0425" id="Fill-80" fill="#FEFEFE"></path>
                        <path d="M29.8965,35.0425 L33.1695,35.0425" id="Fill-81" fill="#FEFEFE"></path>
                        <path d="M29.8965,42.0425 L36.1695,42.0425" id="Fill-82" fill="#FEFEFE"></path>
                        <path d="M40.33922,44.1061463 C40.33922,45.3212355 39.3681521,46.3086197 38.1753213,46.3086197 L32.2727136,46.3086197 C31.3837078,46.3086197 30.66078,45.5728047 30.66078,44.667951 L30.66078,42.7906283 L35.9596453,42.7906283 C36.4178252,42.7906283 36.7900353,42.411783 36.7900353,41.9454353 C36.7900353,41.4780933 36.4178252,41.1002424 35.9596453,41.1002424 L30.66078,41.1002424 L30.66078,35.8302156 L33.028857,35.8302156 C33.4870369,35.8302156 33.859247,35.4513703 33.859247,34.9850227 C33.859247,34.5176807 33.4870369,34.1398297 33.028857,34.1398297 L30.66078,34.1398297 L30.66078,28.869803 L35.9596453,28.869803 C36.4178252,28.869803 36.7900353,28.4909577 36.7900353,28.02461 C36.7900353,27.557268 36.4178252,27.1794171 35.9596453,27.1794171 L30.66078,27.1794171 L30.66078,21.9093903 L33.028857,21.9093903 C33.4870369,21.9093903 33.859247,21.530545 33.859247,21.0641974 C33.859247,20.5968554 33.4870369,20.2190044 33.028857,20.2190044 L30.66078,20.2190044 L30.66078,14.9489777 L35.9596453,14.9489777 C36.4178252,14.9489777 36.7900353,14.5701324 36.7900353,14.1037847 C36.7900353,13.6364427 36.4178252,13.2585918 35.9596453,13.2585918 L30.66078,13.2585918 L30.66078,7.98856504 L33.028857,7.98856504 C33.4870369,7.98856504 33.859247,7.60971972 33.859247,7.14337207 C33.859247,6.67603008 33.4870369,6.29817911 33.028857,6.29817911 L30.66078,6.29817911 L30.66078,3.33105463 C30.66078,2.42620098 31.3837078,1.69038593 32.2727136,1.69038593 L38.7272864,1.69038593 C39.6162922,1.69038593 40.33922,2.42620098 40.33922,3.33105463 L40.33922,44.1061463 Z M38.7272864,0 L32.2727136,0 C30.4683249,0 29,1.49450003 29,3.33105463 L29,44.667951 C29,46.5055 30.4683249,48 32.2727136,48 L38.1753213,48 C40.2845119,48 42,46.2529364 42,44.1061463 L42,3.33105463 C42,1.49450003 40.5316751,0 38.7272864,0 L38.7272864,0 Z" id="Fill-83" fill="#43484D"></path>
                        <path d="M12.9199,13.6303 L22.1699,13.6303" id="Fill-84" fill="#FEFEFE"></path>
                        <path d="M12.1699,42.0425 L22.9199,42.0425" id="Fill-85" fill="#FEFEFE"></path>
                        <path d="M17.5449,13.6303 L17.5449,41.3763" id="Fill-86" fill="#FEFEFE"></path>
                        <path d="M17.5449,7.1122 L17.5449,4.5422" id="Fill-87" fill="#FEFEFE"></path>
                        <path d="M18.6771084,46.3167938 L15.3228916,46.3167938 C13.8424096,46.3167938 12.6385542,45.0801323 12.6385542,43.5602961 L12.6385542,42.8127546 L21.3614458,42.8127546 L21.3614458,43.5602961 C21.3614458,45.0801323 20.1575904,46.3167938 18.6771084,46.3167938 L18.6771084,46.3167938 Z M16.1855422,8.67337249 C16.3706024,8.3901978 16.6674699,8.22781791 17,8.22781791 C17.3315663,8.22781791 17.6293976,8.3901978 17.8144578,8.67337249 L20.6424096,12.9982223 L13.3566265,12.9982223 L16.1855422,8.67337249 Z M17.8192771,14.6814285 L21.340241,14.6814285 C21.3498795,14.7774702 21.3614458,14.8725219 21.3614458,14.9695538 L21.3614458,41.1295484 L17.8192771,41.1295484 L17.8192771,14.6814285 Z M12.6385542,14.9695538 C12.6385542,14.8725219 12.6501205,14.7774702 12.6587952,14.6814285 L16.1807229,14.6814285 L16.1807229,41.1295484 L12.6385542,41.1295484 L12.6385542,14.9695538 Z M22.2472289,12.432863 L19.1744578,7.73473751 C18.8457831,7.23274601 18.3628916,6.88224307 17.8192771,6.69709039 L17.8192771,4.8416031 C17.8192771,4.37723621 17.4520482,4 17,4 C16.5479518,4 16.1807229,4.37723621 16.1807229,4.8416031 L16.1807229,6.69709039 C15.6371084,6.88224307 15.1542169,7.23274601 14.8245783,7.73473751 L11.7518072,12.432863 C11.260241,13.1863453 11,14.0626027 11,14.9695538 L11,43.5602961 C11,46.007876 12.9383133,48 15.3228916,48 L18.6771084,48 C21.0607229,48 23,46.007876 23,43.5602961 L23,14.9695538 C23,14.0626027 22.739759,13.1863453 22.2472289,12.432863 L22.2472289,12.432863 Z" id="Fill-88" fill="#43484D"></path>
                    </g>
                </g>
            </g>
        </g>
    </g>
</svg>