<?xml version="1.0" encoding="UTF-8" standalone="no"?>
<svg width="56px" height="45px" viewBox="0 0 56 45" version="1.1" xmlns="http://www.w3.org/2000/svg" xmlns:xlink="http://www.w3.org/1999/xlink">
    <!-- Generator: Sketch 3.8.3 (29802) - http://www.bohemiancoding.com/sketch -->
    <title>Icon</title>
    <desc>Created with Sketch.</desc>
    <defs></defs>
    <g id="Page-1" stroke="none" stroke-width="1" fill="none" fill-rule="evenodd">
        <g id="Front-end-Developer-Test" transform="translate(-165.000000, -809.000000)">
            <g id="Features-#5" transform="translate(0.000000, 79.000000)">
                <g id="Icon" transform="translate(150.000000, 710.000000)">
                    <polygon id="Security-Space" fill="#FEFEFE" opacity="0" points="0 86 86 86 86 0 0 0"></polygon>
                    <g transform="translate(15.000000, 20.000000)">
                        <path d="M3.4365,27.1562 C3.3535,27.1562 3.2685,27.1442 3.1845,27.1182 L0.6275,26.3242 C0.1795,26.1852 -0.0715,25.7092 0.0685,25.2602 C0.2075,24.8132 0.6825,24.5622 1.1315,24.7002 L3.6885,25.4942 C4.1365,25.6332 4.3875,26.1102 4.2485,26.5582 C4.1345,26.9222 3.7995,27.1562 3.4365,27.1562 M11.0775,29.5272 C10.9945,29.5272 10.9095,29.5152 10.8255,29.4892 L7.0045,28.3032 C6.5565,28.1642 6.3055,27.6882 6.4455,27.2392 C6.5845,26.7922 7.0595,26.5422 7.5085,26.6792 L11.3295,27.8652 C11.7775,28.0042 12.0285,28.4812 11.8885,28.9292 C11.7755,29.2932 11.4405,29.5272 11.0775,29.5272" id="Fill-17" fill="#43484D" opacity="0.3"></path>
                        <path d="M48.207,28.1587 C48.133,28.1587 48.059,28.1497 47.984,28.1287 L44.123,27.0847 C43.67,26.9617 43.401,26.4957 43.524,26.0417 C43.647,25.5887 44.119,25.3207 44.566,25.4437 L48.428,26.4887 C48.881,26.6107 49.149,27.0767 49.026,27.5307 C48.924,27.9087 48.581,28.1587 48.207,28.1587 M54.652,29.9027 C54.578,29.9027 54.504,29.8927 54.43,29.8727 L51.846,29.1737 C51.393,29.0507 51.124,28.5837 51.247,28.1307 C51.37,27.6777 51.84,27.4087 52.289,27.5327 L54.873,28.2317 C55.326,28.3547 55.595,28.8217 55.472,29.2747 C55.369,29.6527 55.026,29.9027 54.652,29.9027" id="Fill-19" fill="#43484D" opacity="0.3"></path>
                        <path d="M34.0963,1.6231 L13.5613,1.6231 C11.9043,1.6231 10.5613,2.9661 10.5613,4.6231 L10.5613,41.1151 C10.5613,42.7721 11.9043,44.1151 13.5613,44.1151 L42.5153,44.1151 C44.1723,44.1151 45.5153,42.7721 45.5153,41.1151 L45.5153,13.2961" id="Fill-21" fill="#E0E7ED"></path>
                        <path d="M42.5156,44.9658 L13.5616,44.9658 C11.4386,44.9658 9.7116,43.2388 9.7116,41.1158 L9.7116,4.6228 C9.7116,2.4998 11.4386,0.7728 13.5616,0.7728 L34.0966,0.7728 C34.5666,0.7728 34.9466,1.1538 34.9466,1.6228 C34.9466,2.0918 34.5666,2.4728 34.0966,2.4728 L13.5616,2.4728 C12.3756,2.4728 11.4116,3.4378 11.4116,4.6228 L11.4116,41.1158 C11.4116,42.3008 12.3756,43.2658 13.5616,43.2658 L42.5156,43.2658 C43.7016,43.2658 44.6656,42.3008 44.6656,41.1158 L44.6656,13.2968 C44.6656,12.8268 45.0456,12.4458 45.5156,12.4458 C45.9856,12.4458 46.3656,12.8268 46.3656,13.2968 L46.3656,41.1158 C46.3656,43.2388 44.6386,44.9658 42.5156,44.9658" id="Fill-23" fill="#43484D"></path>
                        <path d="M34.0963,1.6231 L34.0963,10.7961 C34.0963,12.1771 35.2153,13.2961 36.5963,13.2961 L45.5153,13.2961 L34.0963,1.6231 Z" id="Fill-25" fill="#FEFEFE"></path>
                        <path d="M34.9463,3.7075 L34.9463,10.7965 C34.9463,11.7065 35.6863,12.4465 36.5963,12.4465 L43.4953,12.4465 L34.9463,3.7075 Z M45.5153,14.1465 L36.5963,14.1465 C34.7493,14.1465 33.2473,12.6435 33.2473,10.7965 L33.2473,1.6235 C33.2473,1.2775 33.4563,0.9665 33.7753,0.8355 C34.0963,0.7055 34.4633,0.7815 34.7043,1.0285 L46.1233,12.7025 C46.3623,12.9465 46.4313,13.3105 46.2993,13.6255 C46.1663,13.9415 45.8573,14.1465 45.5153,14.1465 L45.5153,14.1465 Z" id="Fill-27" fill="#43484D"></path>
                        <path d="M20.3008,32.5361 C20.2178,32.5361 20.1348,32.5241 20.0538,32.4991 L10.3148,29.5341 C9.8648,29.3971 9.6118,28.9231 9.7478,28.4741 C9.8858,28.0241 10.3628,27.7711 10.8088,27.9081 L20.0988,30.7361 L30.4848,21.7271 C30.6978,21.5411 30.9888,21.4731 31.2648,21.5491 L45.7388,25.4911 C46.1928,25.6141 46.4588,26.0811 46.3358,26.5341 C46.2118,26.9881 45.7438,27.2511 45.2918,27.1311 L31.2548,23.3081 L20.8578,32.3281 C20.7008,32.4641 20.5028,32.5361 20.3008,32.5361" id="Fill-29" fill="#43484D"></path>
                        <path d="M22.5905,29.8644 C23.5825,30.9094 23.5405,32.5604 22.4955,33.5534 C21.4515,34.5454 19.7995,34.5034 18.8075,33.4584 C17.8145,32.4134 17.8575,30.7624 18.9015,29.7694 C19.9465,28.7774 21.5985,28.8194 22.5905,29.8644" id="Fill-31" fill="#FEFEFE"></path>
                        <path d="M20.6982,29.9023 C20.2452,29.9023 19.8152,30.0743 19.4862,30.3853 C18.7842,31.0543 18.7562,32.1703 19.4242,32.8733 C20.0692,33.5543 21.2282,33.5833 21.9112,32.9373 C22.6142,32.2693 22.6422,31.1533 21.9742,30.4493 C21.6382,30.0963 21.1852,29.9023 20.6982,29.9023 M20.6992,35.1203 C19.7562,35.1203 18.8412,34.7283 18.1912,34.0443 C16.8782,32.6613 16.9332,30.4673 18.3152,29.1533 C19.6462,27.8913 21.9422,27.9493 23.2072,29.2783 C24.5202,30.6623 24.4642,32.8563 23.0812,34.1693 C22.4352,34.7823 21.5902,35.1203 20.6992,35.1203" id="Fill-33" fill="#43484D"></path>
                        <path d="M32.8632,20.5723 C33.8552,21.6173 33.8132,23.2683 32.7682,24.2613 C31.7242,25.2533 30.0722,25.2113 29.0802,24.1663 C28.0872,23.1213 28.1302,21.4703 29.1742,20.4773 C30.2192,19.4853 31.8712,19.5273 32.8632,20.5723" id="Fill-35" fill="#FEFEFE"></path>
                        <path d="M30.9717,20.6104 C30.5187,20.6104 30.0887,20.7814 29.7607,21.0934 C29.4187,21.4174 29.2247,21.8544 29.2127,22.3244 C29.2007,22.7944 29.3717,23.2404 29.6967,23.5814 C30.3427,24.2624 31.5007,24.2924 32.1837,23.6444 C32.8867,22.9764 32.9147,21.8614 32.2467,21.1574 C31.9117,20.8044 31.4587,20.6104 30.9717,20.6104 M30.9717,25.8284 C30.0277,25.8284 29.1137,25.4364 28.4637,24.7524 C27.8267,24.0824 27.4897,23.2044 27.5137,22.2804 C27.5367,21.3574 27.9187,20.4974 28.5897,19.8614 C29.9167,18.5974 32.2177,18.6574 33.4797,19.9864 C34.7927,21.3704 34.7367,23.5644 33.3537,24.8774 C32.7077,25.4904 31.8627,25.8284 30.9717,25.8284" id="Fill-37" fill="#43484D"></path>
                    </g>
                </g>
            </g>
        </g>
    </g>
</svg>