<?xml version="1.0" encoding="UTF-8" standalone="no"?>
<svg width="47px" height="48px" viewBox="0 0 47 48" version="1.1" xmlns="http://www.w3.org/2000/svg" xmlns:xlink="http://www.w3.org/1999/xlink">
    <!-- Generator: Sketch 3.8.3 (29802) - http://www.bohemiancoding.com/sketch -->
    <title>Icon</title>
    <desc>Created with Sketch.</desc>
    <defs></defs>
    <g id="Page-1" stroke="none" stroke-width="1" fill="none" fill-rule="evenodd">
        <g id="Front-end-Developer-Test" transform="translate(-949.000000, -808.000000)">
            <g id="Features-#5" transform="translate(0.000000, 79.000000)">
                <g id="Icon" transform="translate(930.000000, 710.000000)">
                    <polygon id="Security-Space" fill="#FEFEFE" opacity="0" points="0 86 86 86 86 0 0 0"></polygon>
                    <g transform="translate(19.000000, 19.000000)">
                        <path d="M0.8502,3.7382 L0.8502,14.6952 L46.1672,14.6952 L46.1672,3.7382 C46.1672,2.0812 44.8242,0.7382 43.1672,0.7382 L3.8502,0.7382 C2.1932,0.7382 0.8502,2.0812 0.8502,3.7382" id="Fill-1" fill="#E0E7ED"></path>
                        <path d="M43.151392,46.3071944 L3.84860795,46.3071944 C2.66403641,46.3071944 1.69938533,45.3472741 1.69938533,44.1662933 L1.69938533,15.68235 L45.3006147,15.68235 L45.3006147,44.1662933 C45.3006147,45.3472741 44.3369632,46.3071944 43.151392,46.3071944 L43.151392,46.3071944 Z M1.69938533,3.9253174 C1.69938533,2.74533234 2.66403641,1.785412 3.84860795,1.785412 L43.151392,1.785412 C44.3369632,1.785412 45.3006147,2.74533234 45.3006147,3.9253174 L45.3006147,13.9895444 L1.69938533,13.9895444 L1.69938533,3.9253174 Z M43.151392,0 L3.84860795,0 C1.72637557,0 0,1.71969131 0,3.83370675 L0,3.9253174 L0,14.8359472 L0,44.1662933 C0,46.2803087 1.72637557,48 3.84860795,48 L43.151392,48 C45.2736244,48 47,46.2803087 47,44.1662933 L47,14.8359472 L47,3.9253174 L47,3.83370675 C47,1.71969131 45.2736244,0 43.151392,0 L43.151392,0 Z" id="Fill-3" fill="#43484D"></path>
                        <path d="M17.7534,26.3213 C17.4214,25.9893 16.8834,25.9893 16.5514,26.3213 L11.8864,30.9863 C11.5544,31.3183 11.5544,31.8563 11.8864,32.1883 L16.5514,36.8533 C16.7174,37.0193 16.9344,37.1023 17.1524,37.1023 C17.3704,37.1023 17.5874,37.0193 17.7534,36.8533 C18.0854,36.5213 18.0854,35.9833 17.7534,35.6513 L13.6894,31.5873 L17.7534,27.5233 C18.0854,27.1913 18.0854,26.6533 17.7534,26.3213" id="Fill-5" fill="#43484D"></path>
                        <path d="M28.6055,26.3213 C28.2735,25.9893 27.7355,25.9893 27.4035,26.3213 C27.0715,26.6533 27.0715,27.1913 27.4035,27.5233 L31.4675,31.5873 L27.4035,35.6513 C27.0715,35.9833 27.0715,36.5213 27.4035,36.8533 C27.5695,37.0193 27.7865,37.1023 28.0045,37.1023 C28.2215,37.1023 28.4395,37.0193 28.6055,36.8533 L33.2715,32.1883 C33.4305,32.0293 33.5205,31.8133 33.5205,31.5873 C33.5205,31.3623 33.4305,31.1453 33.2715,30.9863 L28.6055,26.3213 Z" id="Fill-7" fill="#43484D"></path>
                        <path d="M24.958,23.3726 C24.515,23.2326 24.034,23.4816 23.893,23.9296 L19.652,37.4806 C19.512,37.9296 19.761,38.4056 20.209,38.5456 C20.293,38.5726 20.379,38.5846 20.463,38.5846 C20.825,38.5846 21.16,38.3516 21.274,37.9886 L25.515,24.4376 C25.655,23.9896 25.406,23.5126 24.958,23.3726" id="Fill-9" fill="#43484D"></path>
                        <path d="M10.293,7.7166 C10.293,8.7736 9.436,9.6306 8.379,9.6306 C7.322,9.6306 6.466,8.7736 6.466,7.7166 C6.466,6.6596 7.322,5.8026 8.379,5.8026 C9.436,5.8026 10.293,6.6596 10.293,7.7166" id="Fill-11" fill="#43484D"></path>
                        <path d="M16.293,7.7166 C16.293,8.7736 15.436,9.6306 14.379,9.6306 C13.322,9.6306 12.466,8.7736 12.466,7.7166 C12.466,6.6596 13.322,5.8026 14.379,5.8026 C15.436,5.8026 16.293,6.6596 16.293,7.7166" id="Fill-13" fill="#43484D" opacity="0.3"></path>
                        <path d="M22.293,7.7166 C22.293,8.7736 21.436,9.6306 20.379,9.6306 C19.322,9.6306 18.466,8.7736 18.466,7.7166 C18.466,6.6596 19.322,5.8026 20.379,5.8026 C21.436,5.8026 22.293,6.6596 22.293,7.7166" id="Fill-15" fill="#43484D" opacity="0.3"></path>
                    </g>
                </g>
            </g>
        </g>
    </g>
</svg>