<?xml version="1.0" encoding="UTF-8" standalone="no"?>
<svg width="15px" height="15px" viewBox="0 0 15 15" version="1.1" xmlns="http://www.w3.org/2000/svg" xmlns:xlink="http://www.w3.org/1999/xlink">
    <!-- Generator: Sketch 3.8.3 (29802) - http://www.bohemiancoding.com/sketch -->
    <title>Icon</title>
    <desc>Created with Sketch.</desc>
    <defs></defs>
    <g id="Page-1" stroke="none" stroke-width="1" fill="none" fill-rule="evenodd">
        <g id="Front-end-Developer-Test" transform="translate(-1095.000000, -3256.000000)" fill="#BDC6CF">
            <g id="Footer-#13" transform="translate(0.000000, 3192.000000)">
                <path d="M1106.11147,75.0823529 C1106.43971,74.0848529 1106.63206,73.0255882 1106.6775,71.9411765 L1109.09515,71.9411765 C1108.99588,73.4389706 1108.39853,74.7995588 1107.46412,75.8619118 C1107.03309,75.5597059 1106.58176,75.2985294 1106.11147,75.0823529 L1106.11147,75.0823529 Z M1105.80044,75.9122059 C1106.15559,76.0789706 1106.49971,76.2713235 1106.82971,76.4927941 C1106.24912,76.9970588 1105.58074,77.3998529 1104.85015,77.6786765 C1105.21941,77.1298529 1105.53706,76.5382353 1105.80044,75.9122059 L1105.80044,75.9122059 Z M1099.29926,75.8632353 C1099.57544,76.5294118 1099.91206,77.1576471 1100.30824,77.7369118 C1099.51544,77.4572059 1098.79235,77.0332353 1098.16985,76.4927941 C1098.53118,76.2505882 1098.90838,76.0401471 1099.29926,75.8632353 L1099.29926,75.8632353 Z M1099.25912,67.1155882 C1098.88324,66.9430882 1098.51971,66.7397059 1098.17162,66.5058824 C1098.76985,65.9866176 1099.46206,65.5754412 1100.21868,65.2961765 C1099.84103,65.8635294 1099.52074,66.4723529 1099.25912,67.1155882 L1099.25912,67.1155882 Z M1105.84147,67.0675 C1105.59221,66.4635294 1105.29088,65.8908824 1104.93882,65.3539706 C1105.63456,65.6310294 1106.27118,66.0223529 1106.82794,66.5054412 C1106.51074,66.7176471 1106.18162,66.9055882 1105.84147,67.0675 L1105.84147,67.0675 Z M1102.93324,71.0588235 L1102.93324,68.6888235 C1103.75382,68.6486765 1104.55456,68.4977941 1105.31779,68.2357353 C1105.59971,69.1344118 1105.76426,70.0864706 1105.79956,71.0588235 L1102.93324,71.0588235 Z M1102.93324,71.9411765 L1105.79515,71.9411765 C1105.75147,72.9117647 1105.58074,73.8585294 1105.29265,74.7514706 C1104.53779,74.4951471 1103.74588,74.3513235 1102.93324,74.3116176 L1102.93324,71.9411765 Z M1102.05088,71.9411765 L1102.05088,74.3125 C1101.28279,74.3508824 1100.53368,74.4863235 1099.81721,74.7188235 C1099.53529,73.8355882 1099.36809,72.9002941 1099.32485,71.9411765 L1102.05088,71.9411765 Z M1102.05088,71.0588235 L1099.32044,71.0588235 C1099.35529,70.1005882 1099.51544,69.1622059 1099.79029,68.275 C1100.51559,68.5127941 1101.27397,68.6486765 1102.05088,68.6879412 L1102.05088,71.0588235 Z M1109.09515,71.0588235 L1106.68235,71.0588235 C1106.64706,69.9598529 1106.46485,68.8975 1106.14544,67.8991176 C1106.60338,67.6860294 1107.04412,67.4327941 1107.46456,67.1389706 C1108.39853,68.2008824 1108.99588,69.5614706 1109.09515,71.0588235 L1109.09515,71.0588235 Z M1103.56412,64.9763235 C1104.16235,65.6852941 1104.64941,66.5094118 1105.01824,67.4058824 C1104.34985,67.6339706 1103.65059,67.7672059 1102.93324,67.8064706 L1102.93324,64.9044118 C1103.14676,64.9180882 1103.35676,64.9423529 1103.56412,64.9763235 L1103.56412,64.9763235 Z M1102.05088,64.9052941 L1102.05088,67.8055882 C1101.37632,67.7676471 1100.71809,67.6476471 1100.08721,67.4425 C1100.46132,66.5230882 1100.95853,65.6782353 1101.57221,64.9551471 C1101.73015,64.9330882 1101.88941,64.9158824 1102.05088,64.9052941 L1102.05088,64.9052941 Z M1097.53588,67.1385294 C1097.98809,67.4552941 1098.46324,67.7270588 1098.95912,67.9494118 C1098.64985,68.9332353 1098.4725,69.9783824 1098.43765,71.0588235 L1095.90441,71.0588235 C1096.00412,69.5610294 1096.60147,68.2004412 1097.53588,67.1385294 L1097.53588,67.1385294 Z M1095.90441,71.9411765 L1098.44294,71.9411765 C1098.48706,73.0075 1098.67456,74.0486765 1098.99265,75.0316176 C1098.48441,75.2566176 1097.99912,75.5372059 1097.53588,75.8619118 C1096.60147,74.7995588 1096.00412,73.4389706 1095.90441,71.9411765 L1095.90441,71.9411765 Z M1101.66574,78.0594118 C1101.02735,77.3336765 1100.51118,76.4804412 1100.12162,75.5482353 C1100.74191,75.3501471 1101.38779,75.2319118 1102.05088,75.1948529 L1102.05088,78.0951471 C1101.92162,78.0863235 1101.79324,78.0752941 1101.66574,78.0594118 L1101.66574,78.0594118 Z M1102.93324,78.0955882 L1102.93324,75.1939706 C1103.63912,75.2323529 1104.32779,75.3594118 1104.98515,75.5804412 C1104.60088,76.4910294 1104.09441,77.3252941 1103.47147,78.0382353 C1103.29412,78.0647059 1103.115,78.0841176 1102.93324,78.0955882 L1102.93324,78.0955882 Z M1107.91015,76.6855882 C1109.20191,75.3382353 1110,73.5139706 1110,71.5 C1110,67.8148529 1107.34015,64.7575 1103.83721,64.1257353 C1103.83324,64.1252941 1103.82971,64.1244118 1103.82574,64.1239706 C1103.39471,64.0472059 1102.95309,64 1102.5,64 C1098.35779,64 1095,67.3577941 1095,71.5 C1095,73.5214706 1095.80338,75.3527941 1097.10397,76.7014706 C1097.10882,76.7085294 1097.10971,76.7169118 1097.115,76.7239706 C1097.12735,76.7398529 1097.145,76.7482353 1097.15912,76.7619118 C1098.51926,78.1423529 1100.40882,79 1102.5,79 C1104.58191,79 1106.46485,78.1507353 1107.82412,76.7804412 C1107.84529,76.7619118 1107.87132,76.7508824 1107.88941,76.7275 C1107.89956,76.7147059 1107.90176,76.6992647 1107.91015,76.6855882 L1107.91015,76.6855882 Z" id="Icon"></path>
            </g>
        </g>
    </g>
</svg>