<?xml version="1.0" encoding="UTF-8" standalone="no"?>
<svg width="121px" height="22px" viewBox="0 0 121 22" version="1.1" xmlns="http://www.w3.org/2000/svg" xmlns:xlink="http://www.w3.org/1999/xlink">
    <!-- Generator: Sketch 3.8.3 (29802) - http://www.bohemiancoding.com/sketch -->
    <title>Module 02 Black Logo</title>
    <desc>Created with Sketch.</desc>
    <defs></defs>
    <g id="Page-1" stroke="none" stroke-width="1" fill="none" fill-rule="evenodd">
        <g id="Front-end-Developer-Test" transform="translate(-150.000000, -38.000000)" fill="#43484D">
            <g id="Header-#13">
                <g id="Module-02-Black-Logo" transform="translate(150.000000, 38.000000)">
                    <path d="M2.74947294,21.5534506 L2.74947294,12.9201624 C2.74947294,10.7767253 4.07986307,9.28822733 6.06066616,9.28822733 C8.18929037,9.28822733 9.07621713,10.7171854 9.07621713,12.5629229 L9.07621713,21.5534506 L11.8552543,21.5534506 L11.8552543,12.8903924 C11.8552543,10.8362652 13.1856444,9.28822733 15.1368833,9.28822733 C17.2359433,9.28822733 18.1524343,10.6874154 18.1524343,12.5629229 L18.1524343,21.5534506 L20.9019072,21.5534506 L20.9019072,12.2652233 C20.9019072,8.51420839 18.4776407,6.8173207 15.9942458,6.8173207 C14.1908281,6.8173207 12.3578461,7.47225981 11.2344056,9.52638701 C10.4657357,7.68064953 8.75101065,6.8173207 6.97715714,6.8173207 C5.32156053,6.8173207 3.54770702,7.56156969 2.66078027,9.13937754 L2.66078027,7.23410014 L0,7.23410014 L0,21.5534506 L2.74947294,21.5534506 Z M32.5630834,19.4993234 C30.1979454,19.4993234 28.1284497,17.7131258 28.1284497,14.3788904 C28.1284497,11.0744249 30.1979454,9.28822733 32.5630834,9.28822733 C34.9282214,9.28822733 36.9977172,11.0744249 36.9977172,14.3788904 C36.9977172,17.7131258 34.9282214,19.4993234 32.5630834,19.4993234 L32.5630834,19.4993234 Z M32.5630834,6.78755074 C28.305835,6.78755074 25.290284,10.0324763 25.290284,14.3788904 C25.290284,18.7550744 28.305835,22 32.5630834,22 C36.8203319,22 39.8358828,18.7550744 39.8358828,14.3788904 C39.8358828,10.0324763 36.8203319,6.78755074 32.5630834,6.78755074 L32.5630834,6.78755074 Z M46.1754985,14.3491204 C46.1754985,11.4018945 47.8310951,9.31799729 50.3736185,9.31799729 C52.9161419,9.31799729 54.4534816,11.3423545 54.4534816,14.2895805 C54.4534816,17.2368065 52.8865776,19.4695535 50.3440543,19.4695535 C47.683274,19.4695535 46.1754985,17.2963464 46.1754985,14.3491204 L46.1754985,14.3491204 Z M54.4830458,19.6184032 C54.4830458,20.4817321 54.5717385,21.2259811 54.6308669,21.5534506 L57.3212114,21.5534506 C57.2916472,21.3152909 57.1733903,20.2733424 57.1733903,18.9039242 L57.1733903,0 L54.4239173,0 L54.4239173,9.25845737 C53.9508897,8.09742896 52.5909354,6.84709066 50.0779762,6.84709066 C46.0572416,6.84709066 43.3373329,10.300406 43.3373329,14.3491204 C43.3373329,18.6062246 45.9094205,21.9404601 50.0779762,21.9404601 C52.2952931,21.9404601 53.8030686,20.7496617 54.4830458,19.3802436 L54.4830458,19.6184032 Z M72.2640166,19.826793 C72.2640166,20.4221922 72.3231451,21.2259811 72.3822735,21.5534506 L75.0430538,21.5534506 C74.9839254,21.0473613 74.8952327,20.0351827 74.8952327,18.9039242 L74.8952327,7.23410014 L72.1161955,7.23410014 L72.1161955,15.8673884 C72.1161955,18.0405954 70.992755,19.5290934 68.7458738,19.5290934 C66.4103001,19.5290934 65.5233733,17.8024357 65.5233733,15.8376184 L65.5233733,7.23410014 L62.7443361,7.23410014 L62.7443361,16.2543978 C62.7443361,19.4993234 64.7547035,22 68.0658967,22 C69.7214933,22 71.4953468,21.3152909 72.2640166,19.826793 L72.2640166,19.826793 Z M83.540858,21.5534506 L83.540858,0 L80.7618208,0 L80.7618208,21.5534506 L83.540858,21.5534506 Z M91.2108638,12.9201624 C91.3291207,11.0744249 92.7482035,9.25845737 95.0837773,9.25845737 C97.5967364,9.25845737 98.9271266,10.8660352 98.986255,12.9201624 L91.2108638,12.9201624 Z M99.4001542,16.6414073 C98.8679981,18.2489851 97.7149933,19.5290934 95.4089838,19.5290934 C93.0142815,19.5290934 91.1812996,17.7428958 91.1221711,15.1826793 L101.824421,15.1826793 C101.853985,15.0040595 101.883549,14.64682 101.883549,14.2895805 C101.883549,9.8240866 99.4297184,6.78755074 95.0542131,6.78755074 C91.4769418,6.78755074 88.2544413,9.85385656 88.2544413,14.3491204 C88.2544413,19.2016238 91.5951987,22 95.4089838,22 C98.720177,22 100.996622,20.0054127 101.794856,17.4749662 L99.4001542,16.6414073 Z M116.843866,3.11710037 C116.831784,2.98420074 116.807621,2.83921933 116.807621,2.71840149 C116.807621,1.90892193 117.254647,1.26858736 118.172862,1.26858736 C119.054833,1.26858736 119.489777,1.84851301 119.489777,2.48884758 C119.489777,3.05669145 119.187732,3.52788104 118.486989,3.96282528 L117.194238,4.77230483 C115.828996,5.61802974 115.357807,6.66914498 115.333643,8.01022305 L121,8.01022305 L121,6.7295539 L117.121747,6.7295539 C117.230483,6.3429368 117.54461,6.06505576 117.919145,5.83550186 L119.44145,4.89312268 C120.383829,4.31319703 120.951673,3.4795539 120.951673,2.46468401 C120.951673,1.12360595 119.924721,0 118.197026,0 C116.421004,0 115.406134,1.22026022 115.406134,2.57342007 C115.406134,2.73048327 115.430297,2.91171004 115.442379,3.0204461 L116.843866,3.11710037 Z M109.437732,4.09572491 C109.437732,3.10501859 109.606877,2.34386617 109.993494,1.8605948 C110.259294,1.51022305 110.633829,1.28066914 111.201673,1.28066914 C111.769517,1.28066914 112.13197,1.51022305 112.409851,1.8605948 C112.784387,2.34386617 112.953532,3.10501859 112.953532,4.09572491 C112.953532,5.08643123 112.784387,5.84758364 112.409851,6.33085502 C112.13197,6.68122677 111.769517,6.91078067 111.201673,6.91078067 C110.633829,6.91078067 110.259294,6.68122677 109.993494,6.33085502 C109.618959,5.84758364 109.437732,5.08643123 109.437732,4.09572491 L109.437732,4.09572491 Z M108,4.09572491 C108,5.13475836 108.169145,6.1133829 108.700743,6.91078067 C109.208178,7.67193309 110.02974,8.19144981 111.201673,8.19144981 C112.373606,8.19144981 113.183086,7.67193309 113.69052,6.91078067 C114.222119,6.1133829 114.391264,5.13475836 114.391264,4.09572491 C114.391264,3.05669145 114.222119,2.07806691 113.69052,1.28066914 C113.183086,0.519516729 112.373606,0 111.201673,0 C110.02974,0 109.208178,0.519516729 108.700743,1.28066914 C108.169145,2.07806691 108,3.05669145 108,4.09572491 L108,4.09572491 Z" id="Module_logo"></path>
                </g>
            </g>
        </g>
    </g>
</svg>